<?xml version="1.0" encoding="UTF-8"?>
<svg id="Capa_1" xmlns="http://www.w3.org/2000/svg" version="1.1" viewBox="0 0 1920 1080">
  <!-- Generator: Adobe Illustrator 29.5.0, SVG Export Plug-In . SVG Version: 2.1.0 Build 137)  -->
  <defs>
    <style>
      .st0 {
        fill: #fff;
      }

      .st1 {
        fill: #ff2727;
      }
    </style>
  </defs>
  <g>
    <circle class="st1" cx="871.1" cy="578.4" r="7.5"/>
    <rect class="st1" x="811.2" y="518.8" width="72.3" height="12" transform="translate(-122.9 752.9) rotate(-45)"/>
    <rect class="st1" x="814.2" y="548" width="68.8" height="12" transform="translate(-143.2 762.4) rotate(-45)"/>
  </g>
  <g>
    <path class="st0" d="M867.4,575.7v-62.4h9.7v62.4h-9.7Z"/>
    <path class="st0" d="M899.3,575.7l-7-28.2-2.2-8.5v36.8h-8.3v-62.4h9.2l6.2,28,1.9,8.7v-36.8h8.2v62.4h-8Z"/>
    <path class="st0" d="M922.8,576.6c-7.5,0-12.1-4.7-12.1-13v-6.6h8.4v7.3c0,2.2,1,3.8,3.2,3.8s3.1-1.4,3.1-3.8c0-5.6-2.2-10-5.9-16.3-3.7-5.8-8.6-14.4-8.6-21.7s4-14.1,12.5-14.1,11,4.8,11,13v6.8h-8.3v-7.8c0-2.1-1.1-3.2-2.6-3.2s-2.9,1-2.9,3.2c0,7.2,2.2,9.8,6.1,16.7,4.1,7,8.3,14.4,8.3,21.8s-5.9,13.8-12,13.8Z"/>
    <path class="st0" d="M952.7,522.7v53h-9.7v-53h-7v-9.5h23.7v9.5h-7Z"/>
    <path class="st0" d="M974.3,575.7l-.6-10.7h-5.7l-.9,10.7h-8.7l7.4-62.4h11l7.4,62.4h-9.8ZM971.3,530.2l-2.3,25.9h4l-1.7-25.9Z"/>
    <path class="st0" d="M1004.5,575.7l-1-3.3c-1.3,2.8-4,4.2-6.8,4.2-6.6,0-10.8-4.8-10.8-12.3v-39.8c0-6.8,5.2-12.3,12.1-12.3s11.7,5.5,11.7,12.3v11.5h-9v-11.9c0-1.5-.8-2.5-2.5-2.5s-2.6,1-2.6,2.5v41c0,1.6,1,2.7,2.6,2.7s2.6-1.1,2.6-2.7v-12.8h-2.4v-7.5h11.8v30.8h-5.6Z"/>
    <path class="st0" d="M1030.6,575.7c-1.5,0-2.3-6.1-2.3-9.7v-13.6c0-1.5-.8-2.8-2.1-2.8h-2.3v26.1h-9.7v-62.4h13c4.8,0,10.1,2.8,10.1,11v14.3c0,2.9-1.6,5.3-4.1,7,2.5,1.7,4.4,4,4.4,7.1v12.7c0,3.9.6,7.1,1.2,10.1v.3h-8.3ZM1028,524.7c0-1.9-.6-2.6-1.7-2.6h-2.4v19.3h2.4c1.1,0,1.7-.7,1.7-2.6v-14.1Z"/>
    <path class="st0" d="M1055.4,575.7l-.6-10.7h-5.7l-.9,10.7h-8.7l7.4-62.4h11l7.4,62.4h-9.8ZM1052.4,530.2l-2.3,25.9h4l-1.7-25.9Z"/>
    <path class="st0" d="M1092.7,575.7v-47.5l-1.3,14.3-4,33.3h-6.4l-3.6-33.3-1.1-14.3v47.5h-8.4v-62.4h12.7l3.4,24.6,1.3,14.2,1.2-14.2,3.1-24.6h12.5v62.4h-9.3Z"/>
  </g>
</svg>