<?xml version="1.0" encoding="UTF-8" standalone="no"?>
<svg
   id="Capa_1"
   version="1.1"
   viewBox="0 0 284.54797 90.881881"
   width="284.54797"
   height="90.881882"
   xmlns="http://www.w3.org/2000/svg"
   xmlns:svg="http://www.w3.org/2000/svg">
  <!-- Generator: Adobe Illustrator 29.5.0, SVG Export Plug-In . SVG Version: 2.1.0 Build 137)  -->
  <defs
     id="defs4">
    <style
       id="style2">
      .st0 {
        fill: #fff;
      }

      .st1 {
        fill: #ff2727;
      }
    </style>
  </defs>
  <g
     id="g12"
     transform="translate(-817.55202,-495.01814)">
    <circle
       class="st1"
       cx="871.09998"
       cy="578.40002"
       r="7.5"
       id="circle6" />
    <rect
       class="st1"
       x="811.20001"
       y="518.79999"
       width="72.300003"
       height="12"
       transform="rotate(-45,847.3807,524.80342)"
       id="rect8" />
    <rect
       class="st1"
       x="814.20001"
       y="548"
       width="68.800003"
       height="12"
       transform="rotate(-45,848.69821,554.05769)"
       id="rect10" />
  </g>
  <g
     id="g32"
     transform="translate(-817.55202,-495.01814)">
    <path
       class="st0"
       d="m 867.4,575.7 v -62.4 h 9.7 v 62.4 z"
       id="path14" />
    <path
       class="st0"
       d="m 899.3,575.7 -7,-28.2 -2.2,-8.5 v 36.8 h -8.3 v -62.4 h 9.2 l 6.2,28 1.9,8.7 v -36.8 h 8.2 v 62.4 z"
       id="path16" />
    <path
       class="st0"
       d="m 922.8,576.6 c -7.5,0 -12.1,-4.7 -12.1,-13 V 557 h 8.4 v 7.3 c 0,2.2 1,3.8 3.2,3.8 2.2,0 3.1,-1.4 3.1,-3.8 0,-5.6 -2.2,-10 -5.9,-16.3 -3.7,-5.8 -8.6,-14.4 -8.6,-21.7 0,-7.3 4,-14.1 12.5,-14.1 8.5,0 11,4.8 11,13 v 6.8 h -8.3 v -7.8 c 0,-2.1 -1.1,-3.2 -2.6,-3.2 -1.5,0 -2.9,1 -2.9,3.2 0,7.2 2.2,9.8 6.1,16.7 4.1,7 8.3,14.4 8.3,21.8 0,7.4 -5.9,13.8 -12,13.8 z"
       id="path18" />
    <path
       class="st0"
       d="m 952.7,522.7 v 53 H 943 v -53 h -7 v -9.5 h 23.7 v 9.5 z"
       id="path20" />
    <path
       class="st0"
       d="M 974.3,575.7 973.7,565 H 968 l -0.9,10.7 h -8.7 l 7.4,-62.4 h 11 l 7.4,62.4 h -9.8 z m -3,-45.5 -2.3,25.9 h 4 z"
       id="path22" />
    <path
       class="st0"
       d="m 1004.5,575.7 -1,-3.3 c -1.3,2.8 -4,4.2 -6.8,4.2 -6.6,0 -10.8,-4.8 -10.8,-12.3 v -39.8 c 0,-6.8 5.2,-12.3 12.1,-12.3 6.9,0 11.7,5.5 11.7,12.3 V 536 h -9 v -11.9 c 0,-1.5 -0.8,-2.5 -2.5,-2.5 -1.7,0 -2.6,1 -2.6,2.5 v 41 c 0,1.6 1,2.7 2.6,2.7 1.6,0 2.6,-1.1 2.6,-2.7 v -12.8 h -2.4 v -7.5 h 11.8 v 30.8 h -5.6 z"
       id="path24" />
    <path
       class="st0"
       d="m 1030.6,575.7 c -1.5,0 -2.3,-6.1 -2.3,-9.7 v -13.6 c 0,-1.5 -0.8,-2.8 -2.1,-2.8 h -2.3 v 26.1 h -9.7 v -62.4 h 13 c 4.8,0 10.1,2.8 10.1,11 v 14.3 c 0,2.9 -1.6,5.3 -4.1,7 2.5,1.7 4.4,4 4.4,7.1 v 12.7 c 0,3.9 0.6,7.1 1.2,10.1 v 0.3 h -8.3 z m -2.6,-51 c 0,-1.9 -0.6,-2.6 -1.7,-2.6 h -2.4 v 19.3 h 2.4 c 1.1,0 1.7,-0.7 1.7,-2.6 z"
       id="path26" />
    <path
       class="st0"
       d="m 1055.4,575.7 -0.6,-10.7 h -5.7 l -0.9,10.7 h -8.7 l 7.4,-62.4 h 11 l 7.4,62.4 h -9.8 z m -3,-45.5 -2.3,25.9 h 4 z"
       id="path28" />
    <path
       class="st0"
       d="m 1092.7,575.7 v -47.5 l -1.3,14.3 -4,33.3 h -6.4 l -3.6,-33.3 -1.1,-14.3 v 47.5 h -8.4 v -62.4 h 12.7 l 3.4,24.6 1.3,14.2 1.2,-14.2 3.1,-24.6 h 12.5 v 62.4 h -9.3 z"
       id="path30" />
  </g>
</svg>
