<?xml version="1.0" encoding="UTF-8"?>
<svg id="Layer_1" xmlns="http://www.w3.org/2000/svg" version="1.1" viewBox="0 0 148.2 148.9">
  <!-- Generator: Adobe Illustrator 29.5.0, SVG Export Plug-In . SVG Version: 2.1.0 Build 137)  -->
  <defs>
    <style>
      .st0 {
        fill: #fff;
      }

      .st1 {
        fill: #ff2727;
      }
    </style>
  </defs>
  <g>
    <g>
      <circle class="st0" cx="-3812.9" cy="510" r="7.5"/>
      <path class="st0" d="M-3813.5,494.5l-28.6-28.6c-.3-.3-.3-.9,0-1.2l7.2-7.2c.3-.3.9-.3,1.2,0l20.2,20.2c.3.3.9.3,1.2,0l20.2-20.2c.3-.3.9-.3,1.2,0l7.2,7.2c.3.3.3.9,0,1.2l-28.6,28.6c-.3.3-.9.3-1.2,0Z"/>
      <path class="st0" d="M-3813.5,463.5l-28.6-28.6c-.3-.3-.3-.9,0-1.2l7.2-7.2c.3-.3.9-.3,1.2,0l20.2,20.2c.3.3.9.3,1.2,0l20.2-20.2c.3-.3.9-.3,1.2,0l7.2,7.2c.3.3.3.9,0,1.2l-28.6,28.6c-.3.3-.9.3-1.2,0Z"/>
    </g>
    <path class="st0" d="M-3604,502.5v-5.7c-1.5,0-2.6-.2-3.2-1v-.2c-.1,0,0-.2,0-.2.5-1.3.7-2.8.7-4.4v-38.1c0-6.8-5-11.9-11.5-11.9s-11.5,5.1-11.5,11.9v38.4c0,6.8,4.8,11.9,11.2,11.9s4.6-.6,6.3-1.9l.3-.2.2.3c.9,1.1,2.6,1.9,4.3,1.9s2.6-.2,3.4-.7ZM-3615.4,488.6l-2.7,3.5,2.1,2-.3.3c-.4.4-1,.6-1.7.6-1.6,0-2.7-1.1-2.7-2.9v-39.6c0-1.7,1.1-2.9,2.7-2.9s2.7,1.1,2.7,2.9v36.2Z"/>
    <path class="st0" d="M-3580.2,503.3c6.4,0,11.1-4.9,11.1-11.6v-49.6h-8.3v50c0,1.7-1.1,2.9-2.8,2.9s-2.7-1.2-2.7-2.9v-50h-8.7v49.6c0,6.6,4.9,11.6,11.4,11.6Z"/>
    <polygon class="st0" points="-3534.4 450 -3534.4 442 -3553.8 442 -3553.8 502.3 -3534.4 502.3 -3534.4 494 -3545.1 494 -3545.1 475.1 -3538.2 475.1 -3538.2 467.5 -3545.1 467.5 -3545.1 450 -3534.4 450"/>
    <polygon class="st0" points="-3652.7 502.3 -3645.2 502.3 -3645.2 442 -3652.8 442 -3652.8 481.2 -3655.4 469.1 -3661.4 442 -3670.4 442 -3670.4 502.3 -3662.3 502.3 -3662.3 463.6 -3659.5 475 -3652.7 502.3"/>
    <polygon class="st0" points="-3735.4 468.1 -3739.8 442 -3748.4 442 -3740.4 478.2 -3740.4 502.3 -3731.7 502.3 -3731.7 478.3 -3723 442 -3731.4 442 -3735.4 468.1"/>
    <path class="st0" d="M-3685.8,442h-8.3v50c0,1.7-1.1,2.9-2.8,2.9s-2.7-1.2-2.7-2.9v-50h-8.7v49.6c0,6.6,4.9,11.6,11.4,11.6s11.1-4.9,11.1-11.6v-49.6Z"/>
  </g>
  <g>
    <circle class="st1" cx="74.1" cy="112.6" r="7.5"/>
    <path class="st1" d="M73.5,97.1l-28.6-28.6c-.3-.3-.3-.9,0-1.2l7.2-7.2c.3-.3.9-.3,1.2,0l20.2,20.2c.3.3.9.3,1.2,0l20.2-20.2c.3-.3.9-.3,1.2,0l7.2,7.2c.3.3.3.9,0,1.2l-28.6,28.6c-.3.3-.9.3-1.2,0Z"/>
    <path class="st1" d="M73.5,66.1l-28.6-28.6c-.3-.3-.3-.9,0-1.2l7.2-7.2c.3-.3.9-.3,1.2,0l20.2,20.2c.3.3.9.3,1.2,0l20.2-20.2c.3-.3.9-.3,1.2,0l7.2,7.2c.3.3.3.9,0,1.2l-28.6,28.6c-.3.3-.9.3-1.2,0Z"/>
  </g>
</svg>