<?xml version="1.0" encoding="UTF-8"?>
<svg id="Capa_1" xmlns="http://www.w3.org/2000/svg" version="1.1" viewBox="0 0 1920 1080">
  <!-- Generator: Adobe Illustrator 29.5.0, SVG Export Plug-In . SVG Version: 2.1.0 Build 137)  -->
  <defs>
    <style>
      .st0 {
        fill: #fff;
      }

      .st1 {
        fill: #ff2727;
      }
    </style>
  </defs>
  <g>
    <circle class="st1" cx="943" cy="508.8" r="6.4"/>
    <rect class="st1" x="927.7" y="544.4" width="10" height="34.6" transform="translate(-124 824) rotate(-45)"/>
    <circle class="st1" cx="905.2" cy="572.2" r="6.2"/>
    <g>
      <rect class="st1" x="919.7" y="499.3" width="10" height="60.2" transform="translate(-103.5 808.8) rotate(-45)"/>
      <path class="st0" d="M946,508.1"/>
    </g>
  </g>
  <g>
    <path class="st0" d="M958.7,569.6v-39.6l-1.1,11.9-3.4,27.7h-5.3l-3-27.7-.9-11.9v39.6h-7v-52h10.5l2.8,20.5,1.1,11.8,1-11.8,2.6-20.5h10.4v52h-7.7Z"/>
    <path class="st0" d="M981.6,569.6l-.5-8.9h-4.8l-.8,8.9h-7.3l6.2-52h9.1l6.2,52h-8.2ZM979.1,531.8l-2,21.5h3.4l-1.4-21.5Z"/>
    <path class="st0" d="M992,569.6v-52h8v52h-8Z"/>
    <path class="st0" d="M1004.1,569.6v-52h8v44.5h8.4v7.5h-16.4Z"/>
  </g>
</svg>