<?xml version="1.0" encoding="UTF-8" standalone="no"?>
<svg
   id="Capa_1"
   version="1.1"
   viewBox="0 0 121.49998 76.000023"
   width="121.49998"
   height="76.000023"
   xmlns="http://www.w3.org/2000/svg"
   xmlns:svg="http://www.w3.org/2000/svg">
  <!-- Generator: Adobe Illustrator 29.5.0, SVG Export Plug-In . SVG Version: 2.1.0 Build 137)  -->
  <defs
     id="defs323">
    <style
       id="style321">
      .st0 {
        fill: #fff;
      }

      .st1 {
        fill: #ff2727;
      }
    </style>
  </defs>
  <g
     id="g337"
     transform="translate(-899.00001,-502.39999)">
    <circle
       class="st1"
       cx="943"
       cy="508.79999"
       r="6.4000001"
       id="circle325" />
    <rect
       class="st1"
       x="927.70001"
       y="544.40002"
       width="10"
       height="34.599998"
       transform="rotate(-45,932.65599,561.68124)"
       id="rect327" />
    <circle
       class="st1"
       cx="905.20001"
       cy="572.20001"
       r="6.1999998"
       id="circle329" />
    <g
       id="g335">
      <rect
         class="st1"
         x="919.70001"
         y="499.29999"
         width="10"
         height="60.200001"
         transform="rotate(-45,924.55796,529.33555)"
         id="rect331" />
      <path
         class="st0"
         d="M 946,508.1"
         id="path333" />
    </g>
  </g>
  <g
     id="g347"
     transform="translate(-899.00001,-502.39999)">
    <path
       class="st0"
       d="M 958.7,569.6 V 530 l -1.1,11.9 -3.4,27.7 h -5.3 l -3,-27.7 L 945,530 v 39.6 h -7 v -52 h 10.5 l 2.8,20.5 1.1,11.8 1,-11.8 2.6,-20.5 h 10.4 v 52 z"
       id="path339" />
    <path
       class="st0"
       d="m 981.6,569.6 -0.5,-8.9 h -4.8 l -0.8,8.9 h -7.3 l 6.2,-52 h 9.1 l 6.2,52 h -8.2 z m -2.5,-37.8 -2,21.5 h 3.4 z"
       id="path341" />
    <path
       class="st0"
       d="m 992,569.6 v -52 h 8 v 52 z"
       id="path343" />
    <path
       class="st0"
       d="m 1004.1,569.6 v -52 h 8 v 44.5 h 8.4 v 7.5 z"
       id="path345" />
  </g>
</svg>
