<?xml version="1.0" encoding="UTF-8"?>
<svg id="Capa_1" xmlns="http://www.w3.org/2000/svg" version="1.1" viewBox="0 0 1920 1080">
  <!-- Generator: Adobe Illustrator 29.5.0, SVG Export Plug-In . SVG Version: 2.1.0 Build 137)  -->
  <defs>
    <style>
      .st0 {
        fill: #fff;
      }

      .st1 {
        fill: #ff2727;
      }
    </style>
  </defs>
  <g>
    <g>
      <rect class="st1" x="881.8" y="548.5" width="60.2" height="10" transform="translate(-124.3 807) rotate(-45)"/>
      <rect class="st1" x="917.5" y="549" width="10" height="30.1" transform="translate(-128.7 817.6) rotate(-45)"/>
    </g>
    <rect class="st1" x="881.8" y="523.1" width="60.2" height="10" transform="translate(-106.3 799.5) rotate(-45)"/>
    <circle class="st1" cx="893.5" cy="508.8" r="6.2"/>
  </g>
  <g>
    <path class="st0" d="M939.1,569.1h-7.8l-6.9-52h8l3,34,3.2-34h7.5l-7,52Z"/>
    <path class="st0" d="M948.1,569.1v-52h8v52h-8Z"/>
    <path class="st0" d="M980.9,569.1v-39.6l-1.1,11.9-3.4,27.7h-5.3l-3-27.7-.9-11.9v39.6h-7v-52h10.5l2.8,20.5,1.1,11.8,1-11.8,2.6-20.5h10.4v52h-7.7Z"/>
    <path class="st0" d="M992.7,569.1v-52h16.9v7.5h-8.8v14.2h5.9v7.1h-5.9v15.5h8.8v7.7h-16.9Z"/>
    <path class="st0" d="M1022.3,569.9c-5.6,0-10.2-4.2-10.2-10.5v-32.6c0-6.2,4.5-10.5,10.2-10.5s10.2,4.3,10.2,10.5v32.6c0,6.2-4.5,10.5-10.2,10.5ZM1024.3,526.3c0-1.3-.8-2.1-2-2.1s-2,.8-2,2.1v33.7c0,1.3.8,2.1,2,2.1s2-.8,2-2.1v-33.7Z"/>
  </g>
</svg>