<?xml version="1.0" encoding="UTF-8" standalone="no"?>
<svg
   id="Capa_1"
   version="1.1"
   viewBox="0 0 145.42519 75.792397"
   width="145.42519"
   height="75.792397"
   sodipodi:docname="VIMEO2.svg"
   xmlns:inkscape="http://www.inkscape.org/namespaces/inkscape"
   xmlns:sodipodi="http://sodipodi.sourceforge.net/DTD/sodipodi-0.dtd"
   xmlns="http://www.w3.org/2000/svg"
   xmlns:svg="http://www.w3.org/2000/svg">
  <sodipodi:namedview
     id="namedview1568"
     pagecolor="#505050"
     bordercolor="#eeeeee"
     borderopacity="1"
     inkscape:showpageshadow="0"
     inkscape:pageopacity="0"
     inkscape:pagecheckerboard="0"
     inkscape:deskcolor="#505050"
     showgrid="false" />
  <!-- Generator: Adobe Illustrator 29.5.0, SVG Export Plug-In . SVG Version: 2.1.0 Build 137)  -->
  <defs
     id="defs408">
    <style
       id="style406">
      .st0 {
        fill: #fff;
      }

      .st1 {
        fill: #ff2727;
      }
    </style>
  </defs>
  <g
     id="g420"
     transform="translate(-887.07482,-502.59999)"
     style="fill:#ffffff">
    <g
       id="g414"
       style="fill:#ffffff">
      <rect
         class="st1"
         x="881.79999"
         y="548.5"
         width="60.200001"
         height="10"
         transform="rotate(-45,911.98517,553.54337)"
         id="rect410"
         style="fill:#ffffff" />
      <rect
         class="st1"
         x="917.5"
         y="549"
         width="10"
         height="30.1"
         transform="rotate(-45,922.5805,564.15464)"
         id="rect412"
         style="fill:#ffffff" />
    </g>
    <rect
       class="st1"
       x="881.79999"
       y="523.09998"
       width="60.200001"
       height="10"
       transform="rotate(-45,911.93187,528.06545)"
       id="rect416"
       style="fill:#ffffff" />
    <circle
       class="st1"
       cx="893.5"
       cy="508.79999"
       r="6.1999998"
       id="circle418"
       style="fill:#ffffff" />
  </g>
  <g
     id="g432"
     transform="translate(-887.07482,-502.59999)"
     style="fill:#ff2727;fill-opacity:1">
    <path
       class="st0"
       d="m 939.1,569.1 h -7.8 l -6.9,-52 h 8 l 3,34 3.2,-34 h 7.5 z"
       id="path422"
       style="fill:#ff2727;fill-opacity:1" />
    <path
       class="st0"
       d="m 948.1,569.1 v -52 h 8 v 52 z"
       id="path424"
       style="fill:#ff2727;fill-opacity:1" />
    <path
       class="st0"
       d="m 980.9,569.1 v -39.6 l -1.1,11.9 -3.4,27.7 h -5.3 l -3,-27.7 -0.9,-11.9 v 39.6 h -7 v -52 h 10.5 l 2.8,20.5 1.1,11.8 1,-11.8 2.6,-20.5 h 10.4 v 52 z"
       id="path426"
       style="fill:#ff2727;fill-opacity:1" />
    <path
       class="st0"
       d="m 992.7,569.1 v -52 h 16.9 v 7.5 h -8.8 v 14.2 h 5.9 v 7.1 h -5.9 v 15.5 h 8.8 v 7.7 z"
       id="path428"
       style="fill:#ff2727;fill-opacity:1" />
    <path
       class="st0"
       d="m 1022.3,569.9 c -5.6,0 -10.2,-4.2 -10.2,-10.5 v -32.6 c 0,-6.2 4.5,-10.5 10.2,-10.5 5.7,0 10.2,4.3 10.2,10.5 v 32.6 c 0,6.2 -4.5,10.5 -10.2,10.5 z m 2,-43.6 c 0,-1.3 -0.8,-2.1 -2,-2.1 -1.2,0 -2,0.8 -2,2.1 V 560 c 0,1.3 0.8,2.1 2,2.1 1.2,0 2,-0.8 2,-2.1 z"
       id="path430"
       style="fill:#ff2727;fill-opacity:1" />
  </g>
</svg>
